<svg xmlns="http://www.w3.org/2000/svg" width="23.989" height="23.989" viewBox="0 0 23.989 23.989">
  <path id="Path_41" data-name="Path 41" d="M118.491,105.98a11.995,11.995,0,1,0,11.994,11.995,12.008,12.008,0,0,0-11.994-11.995Zm9.176,7.117h-4.041a14.026,14.026,0,0,0-1.863-4.977A10.521,10.521,0,0,1,127.667,113.1ZM108.1,117.975a10.353,10.353,0,0,1,.53-3.279h2.27a.8.8,0,0,0,0-1.6h-1.582a10.448,10.448,0,0,1,5.934-5,11.064,11.064,0,0,0-1.213,2.489.8.8,0,0,0,1.508.533c.772-2.184,1.9-3.541,2.948-3.541,1.378,0,2.79,2.271,3.5,5.518h-4.7a.8.8,0,0,0,0,1.6h4.982a24.878,24.878,0,0,1,.021,6.4h-7.6a24.446,24.446,0,0,1-.2-3.119c0-.276,0-.544.012-.8a.8.8,0,0,0-1.6-.052c-.009.27-.013.556-.013.849a26.215,26.215,0,0,0,.183,3.119h-4.5A10.341,10.341,0,0,1,108.1,117.975Zm1.135,4.718h4.095a14.876,14.876,0,0,0,1.718,4.848c.063.1.126.2.19.3A10.484,10.484,0,0,1,109.23,122.692Zm9.261,5.678c-1.408,0-2.835-2.338-3.535-5.678h7.069c-.7,3.34-2.127,5.678-3.534,5.678Zm3.259-.532c.063-.1.127-.194.19-.3a14.87,14.87,0,0,0,1.717-4.848h4.1A10.485,10.485,0,0,1,121.749,127.838Zm6.658-6.744h-4.5a26.591,26.591,0,0,0-.02-6.4h4.471a10.4,10.4,0,0,1,.052,6.4Zm0,0" transform="translate(-106.496 -105.98)" fill="#ff3b30"/>
</svg>
