<svg xmlns="http://www.w3.org/2000/svg" width="22.115" height="22.115" viewBox="0 0 22.115 22.115">
  <path id="Path_50" data-name="Path 50" d="M148.115,45.954a.851.851,0,0,0-.47-.761l-10.207-5.1a.852.852,0,0,0-.761,0l-10.207,5.1a.851.851,0,0,0,0,1.522l3.582,1.791L126.47,50.3a.851.851,0,0,0,0,1.522l3.582,1.791L126.47,55.4a.851.851,0,0,0,0,1.522l10.207,5.1a.852.852,0,0,0,.761,0l10.207-5.1a.851.851,0,0,0,0-1.522l-3.582-1.791,3.582-1.791a.851.851,0,0,0,0-1.522l-3.582-1.791,3.582-1.791A.851.851,0,0,0,148.115,45.954Zm-2.752,10.207-8.305,4.153-8.305-4.153,3.2-1.6,4.723,2.362a.852.852,0,0,0,.761,0l4.723-2.362Zm0-5.1-8.305,4.153-8.305-4.153,3.2-1.6,4.723,2.362a.852.852,0,0,0,.761,0l4.723-2.362Zm-8.305-.951-8.305-4.153,8.305-4.153,8.305,4.153Zm0,0" transform="translate(-126 -40)" fill="#4cd964"/>
</svg>
