<svg xmlns="http://www.w3.org/2000/svg" width="39.395" height="43.124" viewBox="0 0 39.395 43.124">
  <path id="Path_2" data-name="Path 2" d="M8.957,55.473l4.7,8.14a3.732,3.732,0,1,0,6.465-3.732l-2.8-4.849,2.424-1.4a.933.933,0,0,0,.342-1.275l-1.213-2.1,17.873-3.506a2.8,2.8,0,0,0,2.269-4.194l-3.1-5.371,1.982-3a.934.934,0,0,0,.03-.981L36.06,29.968A.935.935,0,0,0,35.2,29.5l-3.59.215-3.443-5.963a2.775,2.775,0,0,0-2.389-1.4h-.036a2.775,2.775,0,0,0-2.357,1.291L11.191,39.175,3.266,43.75a6.532,6.532,0,0,0,5.69,11.722ZM18.5,60.814a1.866,1.866,0,0,1-3.233,1.866L10.606,54.6l3.232-1.866L18.5,60.814Zm-2.117-7.4L15.455,51.8l1.616-.933L18,52.481ZM34.732,31.4l1.29,2.234-1.15,1.742-2.223-3.85Zm-9.79-6.731a.933.933,0,0,1,1.6.019L37.4,43.488a.933.933,0,0,1-.785,1.4,3.426,3.426,0,0,0-.512.087L24.622,25.088c.241-.31.272-.34.32-.418Zm-1.562,2L34.167,45.353l-16.28,3.193-4.95-8.574ZM2.492,51.74A4.663,4.663,0,0,1,4.2,45.367l7.273-4.2,4.666,8.081-7.273,4.2A4.671,4.671,0,0,1,2.492,51.74Zm0,0" transform="translate(0 -22.355)" fill="#ffbc00"/>
</svg>
